<svg xmlns="http://www.w3.org/2000/svg" version="1.1" xmlns:xlink="http://www.w3.org/1999/xlink" xmlns:svgjs="http://svgjs.dev/svgjs" width="1500" height="1500" viewBox="0 0 1500 1500"><rect width="1500" height="1500" fill="#000000"></rect><g transform="matrix(0.6666666666666666,0,0,0.6666666666666666,249.39393939393938,512.5610539766012)"><svg viewBox="0 0 396 188" data-background-color="#000000" preserveAspectRatio="xMidYMid meet" height="712" width="1500" xmlns="http://www.w3.org/2000/svg" xmlns:xlink="http://www.w3.org/1999/xlink"><g id="tight-bounds" transform="matrix(1,0,0,1,0.2400000000000091,0.041829745222557335)"><svg viewBox="0 0 395.52 187.91634050955489" height="187.91634050955489" width="395.52"><g><svg viewBox="0 0 395.52 187.91634050955489" height="187.91634050955489" width="395.52"><g><svg viewBox="0 0 395.52 187.91634050955489" height="187.91634050955489" width="395.52"><g transform="matrix(1,0,0,1,0,122.05048468906355)"><svg viewBox="0 0 395.52 65.86585582049133" height="65.86585582049133" width="395.52"><g id="textblocktransform"><svg viewBox="0 0 395.52 65.86585582049133" height="65.86585582049133" width="395.52" id="textblock"><g><svg viewBox="0 0 395.52 65.86585582049133" height="65.86585582049133" width="395.52"><g transform="matrix(1,0,0,1,0,0)"><svg width="395.52" viewBox="-0.24 -31.74 247.62442507654893 41.019999999999996" height="65.86585582049133" data-palette-color="#dbcb67"><g transform="matrix(1,0,0,1,0,0)"><g><svg width="3.953340672843052" viewBox="3.16 -36.36 28.68 36.36" height="5.013276593178062" data-palette-color="#dbcb67" id="scriptelement" x="240.50867474012736" y="-29.34755829658903"><path d="M10.85 0L3.16 0 3.16-36.36 17.51-36.36Q21.63-36.36 24.55-34.9 27.47-33.43 29-30.76 30.54-28.09 30.54-24.49L30.54-24.49Q30.54-20.86 28.98-18.26 27.41-15.66 24.46-14.28 21.5-12.89 17.31-12.89L17.31-12.89 7.71-12.89 7.71-19.07 16.07-19.07Q18.27-19.07 19.73-19.67 21.18-20.28 21.9-21.48 22.62-22.69 22.62-24.49L22.62-24.49Q22.62-26.3 21.9-27.54 21.18-28.78 19.72-29.43 18.25-30.08 16.03-30.08L16.03-30.08 10.85-30.08 10.85 0ZM14.51-16.55L22.8-16.55 31.84 0 23.35 0 14.51-16.55Z" opacity="1" transform="matrix(1,0,0,1,0,0)" fill="#dbcb67" class="undefined-123" data-fill-palette-color="primary" id="tk-123"></path></svg></g></g><path d="M237.586-26.841C237.586-29.547 239.78-31.74 242.485-31.74 245.191-31.74 247.384-29.547 247.384-26.841 247.384-24.135 245.191-21.942 242.485-21.942 239.78-21.942 237.586-24.135 237.586-26.841ZM242.485-22.495C244.886-22.495 246.832-24.441 246.832-26.841 246.832-29.241 244.886-31.187 242.485-31.187 240.085-31.187 238.139-29.241 238.139-26.841 238.139-24.441 240.085-22.495 242.485-22.495Z" fill="#dbcb67" id="scriptcircle" data-fill-palette-color="primary"></path><path d="M15.09 0.24L15.67 0.24 25.73-28.03 28.17-28.03 28.17-29.3 19.97-29.3 19.97-28.03 23.88-28.03 15.72-4.98 6.88-28.03 10.79-28.03 10.79-29.3-0.24-29.3-0.24-28.03 2.69-28.03 11.96-3.37Q13.04-0.49 13.82-0.05L13.82-0.05Q14.31 0.24 15.09 0.24L15.09 0.24ZM34.27-10.4L34.27-10.4Q34.27-17.97 38.43-19.63L38.43-19.63Q39.5-20.02 40.67-20.02L40.67-20.02Q46.09-20.02 46.97-13.18L46.97-13.18Q47.12-12.01 47.12-10.6L47.12-10.6Q47.12-2.39 42.62-0.98L42.62-0.98Q41.75-0.73 40.82-0.73L40.82-0.73Q35.89-0.73 34.62-6.59L34.62-6.59Q34.27-8.3 34.27-10.4ZM40.82-21.24L40.82-21.24Q36.13-21.24 33.01-18.02L33.01-18.02Q30.12-15.04 30.12-10.6L30.12-10.6Q30.12-4.44 34.62-1.37L34.62-1.37Q37.35 0.49 40.67 0.49L40.67 0.49Q45.36 0.49 48.44-2.83L48.44-2.83Q51.27-5.86 51.27-10.4L51.27-10.4Q51.27-16.55 46.73-19.53L46.73-19.53Q44.04-21.24 40.82-21.24ZM59.57-13.53L59.57-13.53Q59.66-19.97 64.45-20.02L64.45-20.02Q69.23-19.92 69.28-13.53L69.28-13.53Q69.18-6.88 64.45-6.84L64.45-6.84Q59.61-6.93 59.57-13.53ZM64.5-21.24L64.5-21.24Q60.1-21.24 57.51-18.41L57.51-18.41Q55.66-16.31 55.66-13.48L55.66-13.48Q55.66-9.77 59.27-7.32L59.27-7.32Q59.61-7.08 59.96-6.88L59.96-6.88Q56.83-6.88 56.05-4.2L56.05-4.2Q55.9-3.56 55.9-2.93L55.9-2.93Q55.95-0.34 58 0.93L58 0.93Q56.39 2.64 56.39 4.39L56.39 4.39Q56.39 7.08 59.57 8.4L59.57 8.4Q61.57 9.28 64.5 9.28L64.5 9.28Q71.92 9.28 74.31 5.66L74.31 5.66Q75.09 4.44 75.09 3.08L75.09 3.08Q75.09-1.12 70.26-1.76L70.26-1.76Q69.62-1.86 68.94-1.86L68.94-1.86 60.05-2.05Q57.81-2.2 57.76-4L57.76-4Q57.76-5.27 59.37-5.62L59.37-5.62Q59.71-5.66 60.1-5.66L60.1-5.66 64.4-5.62Q68.75-5.62 71.33-8.54L71.33-8.54Q73.19-10.64 73.19-13.53L73.19-13.53Q73.14-17.19 70.36-19.38L70.36-19.38Q70.8-20.95 72.02-21.24L72.02-21.24Q72.21-21.29 72.41-21.29L72.41-21.29Q73.09-21.29 73.87-20.56L73.87-20.56Q74.41-20.07 74.85-20.07L74.85-20.07Q76.07-20.36 76.26-21.63L76.26-21.63Q76.26-23.14 74.85-23.68L74.85-23.68Q74.31-23.88 73.77-23.88L73.77-23.88Q71.48-23.88 70.06-21.83L70.06-21.83Q69.53-21.04 69.23-20.12L69.23-20.12Q67.04-21.24 64.5-21.24ZM64.5 8.01L64.5 8.01Q59.66 8.01 58.39 5.47L58.39 5.47Q58.05 4.79 58.05 4.1L58.05 4.1Q58.1 2.78 59.22 1.46L59.22 1.46Q60.2 1.66 60.83 1.66L60.83 1.66 68.35 1.76Q72.02 1.81 72.6 3.42L72.6 3.42Q72.75 3.81 72.75 4.39L72.75 4.39Q72.75 6.54 68.75 7.52L68.75 7.52Q66.79 8.01 64.5 8.01ZM101.85-1.22L101.85-1.22 99.41-1.22 99.41-20.75 91.74-20.75 91.74-19.53 95.74-19.53 95.74-8.98Q95.74-4.59 92.67-2.54L92.67-2.54Q91.3-1.61 89.84-1.61L89.84-1.61Q85.83-1.61 85.2-5.71L85.2-5.71Q85.1-6.4 85.1-7.18L85.1-7.18 85.1-20.75 77.68-20.75 77.68-19.53 81.44-19.53 81.44-7.91Q81.49 0.44 88.42 0.49L88.42 0.49Q92.08 0.49 94.43-2.49L94.43-2.49Q95.31-3.61 95.84-4.98L95.84-4.98 96.18 0 103.07 0Q103.07-1.07 102.34-1.17L102.34-1.17Q102.14-1.22 101.85-1.22ZM116.54-20.02L116.54-20.02Q119.96-20.02 121.08-17.14L121.08-17.14Q121.47-16.21 121.47-15.14L121.47-15.14Q121.47-12.7 119.13-12.16L119.13-12.16Q117.91-11.91 115.66-11.96L115.66-11.96 110.49-12.11Q110.73-17.72 114.15-19.43L114.15-19.43Q115.27-20.02 116.54-20.02ZM125.04-4.69L125.04-4.69 123.82-5.13Q122.11-1.42 118.3-0.93L118.3-0.93Q117.81-0.88 117.37-0.88L117.37-0.88Q112.25-0.88 110.93-6.98L110.93-6.98Q110.54-8.69 110.49-10.74L110.49-10.74 116.35-10.64Q122.3-10.55 124.01-11.77L124.01-11.77Q125.33-12.74 125.33-14.55L125.33-14.55Q125.33-17.87 121.96-19.82L121.96-19.82Q119.57-21.24 116.45-21.24L116.45-21.24Q110.34-21.24 107.7-16.16L107.7-16.16Q106.34-13.53 106.34-10.21L106.34-10.21Q106.34-4.15 110.68-1.22L110.68-1.22Q113.27 0.49 116.59 0.49L116.59 0.49Q121.87 0.49 124.36-3.32L124.36-3.32Q124.75-4 125.04-4.69ZM142.13 0.24L142.71 0.24 152.77-28.03 155.21-28.03 155.21-29.3 147.01-29.3 147.01-28.03 150.92-28.03 142.76-4.98 133.92-28.03 137.83-28.03 137.83-29.3 126.79-29.3 126.79-28.03 129.72-28.03 139-3.37Q140.08-0.49 140.86-0.05L140.86-0.05Q141.34 0.24 142.13 0.24L142.13 0.24ZM174.3 0.49L174.3 0.49Q178.06 0.49 178.45-4.05L178.45-4.05Q178.5-4.35 178.5-4.59L178.5-4.59 177.23-4.64Q176.89-1.07 175.33-1.03L175.33-1.03Q174.06-1.12 174.01-3.56L174.01-3.56 174.01-13.87Q174.01-20.85 167.03-21.24L167.03-21.24Q166.59-21.24 166.15-21.24L166.15-21.24Q160.68-21.24 158.82-18.7L158.82-18.7Q158.24-17.87 158.24-17.04L158.24-17.04Q158.24-15.53 159.65-15.28L159.65-15.28Q159.9-15.23 160.14-15.23L160.14-15.23Q161.26-15.23 161.8-16.65L161.8-16.65Q162.49-18.46 162.73-18.8L162.73-18.8Q163.66-20.02 165.61-20.02L165.61-20.02Q170.2-19.73 170.35-14.99L170.35-14.99 170.35-11.91Q158.87-11.91 157.21-7.13L157.21-7.13Q156.92-6.2 156.92-5.13L156.92-5.13Q156.92-1.42 160.19-0.05L160.19-0.05Q161.51 0.49 162.97 0.49L162.97 0.49Q166.54 0.49 168.98-1.95L168.98-1.95Q169.86-2.88 170.3-3.91L170.3-3.91Q170.88 0.44 174.3 0.49ZM164.58-1.46L164.58-1.46Q161.61-1.46 160.92-4.44L160.92-4.44Q160.78-5.13 160.78-5.96L160.78-5.96Q160.78-9.23 164.54-10.11L164.54-10.11Q166.54-10.55 170.35-10.6L170.35-10.6 170.35-6.69Q169.61-3.32 166.78-1.95L166.78-1.95Q165.66-1.46 164.58-1.46ZM203.89-1.22L203.89-1.22 201.45-1.22 201.45-20.75 193.78-20.75 193.78-19.53 197.79-19.53 197.79-8.98Q197.79-4.59 194.71-2.54L194.71-2.54Q193.34-1.61 191.88-1.61L191.88-1.61Q187.87-1.61 187.24-5.71L187.24-5.71Q187.14-6.4 187.14-7.18L187.14-7.18 187.14-20.75 179.72-20.75 179.72-19.53 183.48-19.53 183.48-7.91Q183.53 0.44 190.46 0.49L190.46 0.49Q194.12 0.49 196.47-2.49L196.47-2.49Q197.35-3.61 197.88-4.98L197.88-4.98 198.22 0 205.11 0Q205.11-1.07 204.38-1.17L204.38-1.17Q204.18-1.22 203.89-1.22ZM218-1.22L218-1.22 215.36-1.22 215.36-31.74 208.04-31.74 208.04-30.52 211.7-30.52 211.7-4.15Q211.7-1.9 210.43-1.46L210.43-1.46Q209.7-1.22 208.04-1.22L208.04-1.22 208.04 0 219.22 0Q219.22-1.07 218.49-1.17L218.49-1.17Q218.29-1.22 218-1.22ZM221.51-20.75L221.51-19.53 224.93-19.53 224.93-5.76Q225.27 0.34 230.54 0.54L230.54 0.54Q235.04 0.54 236.16-4.98L236.16-4.98Q236.16-5.03 236.16-5.08L236.16-5.08 234.84-5.32Q233.62-1.27 231.28-0.93L231.28-0.93Q228.64-1.03 228.59-4.69L228.59-4.69 228.59-19.53 236.16-19.53 236.16-20.75 228.59-20.75 228.59-26.42 224.93-25.39 224.93-20.75 221.51-20.75Z" opacity="1" transform="matrix(1,0,0,1,0,0)" fill="#dbcb67" class="wordmark-text-0" data-fill-palette-color="primary" id="text-0"></path></svg></g></svg></g></svg></g></svg></g><g transform="matrix(1,0,0,1,155.75242571355716,0)"><svg viewBox="0 0 84.01514857288569 106.50113691038524" height="106.50113691038524" width="84.01514857288569"><g><svg xmlns="http://www.w3.org/2000/svg" xmlns:xlink="http://www.w3.org/1999/xlink" version="1.1" x="0" y="0" viewBox="17.691051425256163 9.043099766476335 64.61989714948767 81.91490023352367" style="enable-background:new 0 0 100 100;" xml:space="preserve" height="106.50113691038524" width="84.01514857288569" class="icon-icon-0" data-fill-palette-color="accent" id="icon-0"><path d="M69.513 62.303L73.298 89.038A0.63 0.63 0 0 0 73.925 89.582H81.678A0.633 0.633 0 0 0 82.308 88.888L79.869 63.921A20 20 0 0 1 79.778 61.493C79.898 56.076 80.376 34.067 80.376 26.838 80.376 18.744 75.628 18.906 73.625 19.334A3.96 3.96 0 0 1 71.703 19.28L69.055 18.518C69.219 19.042 69.203 19.628 68.977 20.178 68.158 22.165 66.329 25.733 63.273 27.295A4.96 4.96 0 0 1 59.322 27.535C58.054 27.066 56.309 26.033 55.198 23.772 54.883 23.13 54.516 22.663 54.109 22.385L53.55 22.002C53.187 22.122 52.815 22.218 52.439 22.303V90.894C61.387 90.457 69.169 87.773 71.377 86.948A0.74 0.74 0 0 0 71.829 86.061L66.397 65.744A10.5 10.5 0 0 1 66.258 60.887L69.828 43.649 69.415 60.351C69.388 61.004 69.421 61.657 69.513 62.303M66.104 72.529C62.626 73.751 59.351 73.959 57.52 73.959 56.629 73.959 56.081 73.91 56.016 73.904L56.11 72.908C56.158 72.914 60.82 73.326 65.772 71.586z" fill="#456d3a" data-fill-palette-color="accent"></path><circle cx="47.287" cy="39.545" r="1.6" fill="#456d3a" data-fill-palette-color="accent"></circle><circle cx="47.287" cy="51.545" r="1.6" fill="#456d3a" data-fill-palette-color="accent"></circle><circle cx="47.287" cy="63.545" r="1.6" fill="#456d3a" data-fill-palette-color="accent"></circle><circle cx="47.287" cy="27.545" r="1.6" fill="#456d3a" data-fill-palette-color="accent"></circle><path d="M50 22.582A11.3 11.3 0 0 1 46.452 22.003L45.893 22.386C45.486 22.664 45.119 23.131 44.804 23.773 43.693 26.034 41.948 27.067 40.68 27.536A4.96 4.96 0 0 1 36.729 27.296C33.674 25.734 31.844 22.166 31.025 20.179A2.44 2.44 0 0 1 30.947 18.519L28.299 19.281C27.673 19.461 27.014 19.471 26.377 19.335 24.375 18.907 19.626 18.745 19.626 26.839 19.626 34.068 20.104 56.076 20.224 61.494 20.242 62.305 20.211 63.115 20.133 63.922L17.694 88.889A0.633 0.633 0 0 0 18.324 89.583H26.077A0.634 0.634 0 0 0 26.704 89.039L30.489 62.304A11 11 0 0 0 30.588 60.353L30.174 43.65 33.744 60.887A10.5 10.5 0 0 1 33.605 65.745L28.173 86.062A0.74 0.74 0 0 0 28.624 86.949C31.028 87.849 40.057 90.958 50 90.958 50.355 90.958 50.71 90.954 51.062 90.946V22.526C50.712 22.56 50.358 22.582 50 22.582M42.481 73.959C40.649 73.959 37.374 73.751 33.897 72.529L34.228 71.586C39.181 73.326 43.844 72.915 43.891 72.908L43.985 73.904C43.92 73.91 43.371 73.959 42.481 73.959M47.287 65.879C46 65.879 44.953 64.832 44.953 63.545S46 61.211 47.287 61.211 49.621 62.258 49.621 63.545 48.574 65.879 47.287 65.879M47.287 53.879C46 53.879 44.953 52.832 44.953 51.545S46 49.211 47.287 49.211 49.621 50.258 49.621 51.545 48.574 53.879 47.287 53.879M47.287 41.879C46 41.879 44.953 40.832 44.953 39.545S46 37.211 47.287 37.211 49.621 38.258 49.621 39.545 48.574 41.879 47.287 41.879M47.287 29.879C46 29.879 44.953 28.832 44.953 27.545S46 25.211 47.287 25.211 49.621 26.258 49.621 27.545 48.574 29.879 47.287 29.879" fill="#456d3a" data-fill-palette-color="accent"></path><path d="M59.999 13.171C59.79 10.329 57.141 8.864 52.535 9.061A62 62 0 0 1 47.465 9.061C42.858 8.862 40.209 10.328 40.002 13.171 39.845 15.313 40.807 17.379 42.861 19.315 44.757 21.1 47.292 22.083 50 22.083S55.243 21.1 57.139 19.315C59.192 17.38 60.155 15.313 59.999 13.171M43.705 13.89C44.007 13.922 44.325 13.954 44.66 13.984V19.465A9 9 0 0 1 43.705 18.72zM42.25 11.046C42.534 10.849 42.856 10.687 43.205 10.555V13.332A56 56 0 0 1 42.25 13.214zM43.705 10.39C44.011 10.304 44.33 10.236 44.66 10.184V13.483A74 74 0 0 1 43.705 13.388zM56.296 13.458C55.977 13.495 55.659 13.529 55.341 13.558V10.186C55.67 10.237 55.991 10.303 56.296 10.389zM56.796 10.554C57.146 10.686 57.465 10.852 57.75 11.051V13.265C57.432 13.314 57.114 13.357 56.796 13.398zM54.841 13.6A45 45 0 0 1 53.886 13.668V10.054C54.206 10.065 54.525 10.086 54.841 10.12zM50.977 13.765V10.093C51.296 10.088 51.614 10.083 51.932 10.073V13.752A62 62 0 0 1 50.977 13.765M48.068 13.713V10.073C48.386 10.083 48.704 10.088 49.023 10.093V13.745A57 57 0 0 1 48.068 13.713M45.159 13.528V10.119C45.474 10.085 45.794 10.064 46.114 10.054V13.604A82 82 0 0 1 45.159 13.528M45.159 14.029L45.453 14.053V16.754C45.453 16.884 45.553 16.993 45.683 17.003S45.96 17.023 46.114 17.032V20.269A9 9 0 0 1 45.159 19.783zM46.614 17.056C46.92 17.069 47.244 17.079 47.569 17.088V20.772A9 9 0 0 1 46.614 20.477zM48.068 17.099C48.411 17.106 48.737 17.111 49.023 17.115V21.032A10 10 0 0 1 48.068 20.888zM45.953 16.522V14.272H54.047V16.522C52.652 16.613 50.061 16.624 50 16.624S47.348 16.613 45.953 16.522M51.932 17.099V20.888A10 10 0 0 1 50.977 21.032V17.115C51.262 17.111 51.588 17.106 51.932 17.099M52.432 17.088C52.756 17.08 53.081 17.069 53.387 17.056V20.477C53.076 20.593 52.757 20.689 52.432 20.772zM53.886 17.032C54.04 17.023 54.187 17.014 54.317 17.003A0.25 0.25 0 0 0 54.547 16.754V14.117C54.646 14.11 54.742 14.107 54.841 14.099V19.783A9 9 0 0 1 53.886 20.269zM55.341 14.053C55.659 14.024 55.977 13.983 56.296 13.947V18.72A9 9 0 0 1 55.341 19.465zM56.796 13.892C57.115 13.852 57.432 13.807 57.75 13.759V17.124C57.477 17.499 57.157 17.87 56.796 18.239zM58.25 16.342V13.674C58.501 13.632 58.753 13.593 59.003 13.546 59.015 14.489 58.763 15.423 58.25 16.342M58.973 13.053C58.733 13.099 58.492 13.142 58.25 13.182V11.476C58.634 11.885 58.888 12.405 58.973 13.053M52.577 10.06C52.843 10.049 53.114 10.045 53.387 10.046V13.697C53.067 13.713 52.749 13.726 52.432 13.737V10.063C52.48 10.061 52.529 10.062 52.577 10.06M50.477 10.103V13.766C50.155 13.765 49.837 13.762 49.523 13.756V10.103C49.842 10.106 50.158 10.106 50.477 10.103M46.656 10.044C46.914 10.044 47.171 10.05 47.424 10.06 47.472 10.062 47.521 10.061 47.569 10.063V13.69A63 63 0 0 1 46.614 13.636V10.044zM41.75 11.479V13.147C41.462 13.107 41.216 13.07 41.027 13.04A2.76 2.76 0 0 1 41.75 11.479M40.997 13.542C41.198 13.573 41.448 13.61 41.75 13.652V16.342C41.236 15.422 40.984 14.486 40.997 13.542M42.25 17.124V13.72C42.537 13.757 42.86 13.796 43.205 13.836V18.24A10 10 0 0 1 42.25 17.124M49.523 21.061V17.121L49.999 17.124H50.001L50.477 17.121V21.061C50.318 21.069 50.16 21.083 50 21.083S49.682 21.068 49.523 21.061" fill="#456d3a" data-fill-palette-color="accent"></path><path d="M39.502 13.134C39.558 12.375 39.806 11.41 40.546 10.559A6.74 6.74 0 0 0 38.073 12.505C36.959 13.92 35.837 15.333 34.491 16.53 33.841 17.107 33.144 17.663 32.469 18.08 31.893 18.436 31.69 19.171 31.948 19.798 32.697 21.616 34.399 24.983 37.182 26.406A3.94 3.94 0 0 0 40.331 26.598C41.463 26.18 42.949 25.277 43.904 23.332 44.334 22.456 44.828 21.901 45.326 21.56A10.5 10.5 0 0 1 42.516 19.678C40.379 17.664 39.337 15.401 39.502 13.134" fill="#456d3a" data-fill-palette-color="accent"></path><path d="M67.53 18.08C66.855 17.662 66.158 17.107 65.508 16.53 64.162 15.333 63.04 13.921 61.926 12.505A6.7 6.7 0 0 0 59.453 10.559C60.193 11.409 60.442 12.375 60.497 13.134 60.663 15.401 59.62 17.664 57.481 19.678A10.5 10.5 0 0 1 54.671 21.56C55.169 21.901 55.663 22.456 56.093 23.332 57.049 25.277 58.535 26.18 59.666 26.598A3.95 3.95 0 0 0 62.815 26.406C65.598 24.983 67.3 21.616 68.049 19.798 68.309 19.172 68.106 18.436 67.53 18.08" fill="#456d3a" data-fill-palette-color="accent"></path><path d="M46.5 14.395A0.25 0.25 0 0 0 46.25 14.645V16.051A0.25 0.25 0 0 0 46.75 16.051V14.645A0.25 0.25 0 0 0 46.5 14.395" fill="#456d3a" data-fill-palette-color="accent"></path><path d="M48.406 15.801H47.594V14.645A0.25 0.25 0 0 0 47.094 14.645V16.051C47.094 16.189 47.206 16.301 47.344 16.301H48.406A0.25 0.25 0 0 0 48.406 15.801" fill="#456d3a" data-fill-palette-color="accent"></path><path d="M50.79 16.051V14.895H51.344V16.051A0.25 0.25 0 0 0 51.844 16.051V15.505H52.293V16.051C52.293 16.189 52.405 16.301 52.543 16.301H53.454A0.25 0.25 0 0 0 53.704 16.051V14.883A0.25 0.25 0 0 0 53.204 14.883V15.801H52.793V15.255A0.25 0.25 0 0 0 52.543 15.005H51.844V14.645A0.25 0.25 0 0 0 51.594 14.395H50.54A0.25 0.25 0 0 0 50.29 14.645V15.801H49.438V14.645A0.25 0.25 0 0 0 49.188 14.395H48.032A0.25 0.25 0 0 0 47.782 14.645V15.255A0.25 0.25 0 0 0 48.282 15.255V14.895H48.938V16.051C48.938 16.189 49.05 16.301 49.188 16.301H50.54A0.25 0.25 0 0 0 50.79 16.051" fill="#456d3a" data-fill-palette-color="accent"></path></svg></g></svg></g><g></g></svg></g></svg></g><defs></defs></svg><rect width="395.52" height="187.91634050955489" fill="none" stroke="none" visibility="hidden"></rect></g></svg></g></svg>